<mxfile host="65bd71144e">
    <diagram id="Yf7Ss8ycTkI99_R5utLM" name="Page-1">
        <mxGraphModel dx="813" dy="603" grid="1" gridSize="10" guides="1" tooltips="1" connect="1" arrows="1" fold="1" page="1" pageScale="1" pageWidth="850" pageHeight="1100" math="0" shadow="0">
            <root>
                <mxCell id="0"/>
                <mxCell id="1" parent="0"/>
                <mxCell id="4" style="edgeStyle=none;html=1;exitX=0.5;exitY=1;exitDx=0;exitDy=0;endArrow=none;endFill=0;dashed=1;" parent="1" source="2" edge="1">
                    <mxGeometry relative="1" as="geometry">
                        <mxPoint x="120" y="440" as="targetPoint"/>
                    </mxGeometry>
                </mxCell>
                <mxCell id="2" value="User" style="whiteSpace=wrap;html=1;" parent="1" vertex="1">
                    <mxGeometry x="70" y="60" width="100" height="50" as="geometry"/>
                </mxCell>
                <mxCell id="6" value="Front Page of Website" style="whiteSpace=wrap;html=1;" parent="1" vertex="1">
                    <mxGeometry x="230" y="60" width="100" height="50" as="geometry"/>
                </mxCell>
                <mxCell id="7" style="edgeStyle=none;html=1;exitX=0.5;exitY=1;exitDx=0;exitDy=0;endArrow=none;endFill=0;dashed=1;" parent="1" source="18" edge="1">
                    <mxGeometry relative="1" as="geometry">
                        <mxPoint x="440" y="440" as="targetPoint"/>
                    </mxGeometry>
                </mxCell>
                <mxCell id="8" value="Profiles&lt;span style=&quot;background-color: transparent;&quot;&gt;&amp;nbsp;Page&lt;/span&gt;" style="whiteSpace=wrap;html=1;" parent="1" vertex="1">
                    <mxGeometry x="390" y="60" width="100" height="50" as="geometry"/>
                </mxCell>
                <mxCell id="9" style="edgeStyle=none;html=1;exitX=0.5;exitY=1;exitDx=0;exitDy=0;endArrow=none;endFill=0;dashed=1;" parent="1" source="25" edge="1">
                    <mxGeometry relative="1" as="geometry">
                        <mxPoint x="600" y="440" as="targetPoint"/>
                    </mxGeometry>
                </mxCell>
                <mxCell id="10" value="Pet Type Pages" style="whiteSpace=wrap;html=1;" parent="1" vertex="1">
                    <mxGeometry x="550" y="60" width="100" height="50" as="geometry"/>
                </mxCell>
                <mxCell id="13" value="" style="whiteSpace=wrap;html=1;" parent="1" vertex="1">
                    <mxGeometry x="110" y="120" width="20" height="270" as="geometry"/>
                </mxCell>
                <mxCell id="15" value="" style="edgeStyle=none;html=1;exitX=0.5;exitY=1;exitDx=0;exitDy=0;endArrow=none;endFill=0;dashed=1;" parent="1" source="6" target="14" edge="1">
                    <mxGeometry relative="1" as="geometry">
                        <mxPoint x="280" y="440" as="targetPoint"/>
                        <mxPoint x="280" y="110" as="sourcePoint"/>
                    </mxGeometry>
                </mxCell>
                <mxCell id="14" value="" style="whiteSpace=wrap;html=1;" parent="1" vertex="1">
                    <mxGeometry x="270" y="140" width="20" height="40" as="geometry"/>
                </mxCell>
                <mxCell id="16" value="" style="edgeStyle=none;orthogonalLoop=1;jettySize=auto;html=1;entryX=0;entryY=0.25;entryDx=0;entryDy=0;" parent="1" target="14" edge="1">
                    <mxGeometry width="80" relative="1" as="geometry">
                        <mxPoint x="130" y="150" as="sourcePoint"/>
                        <mxPoint x="210" y="150" as="targetPoint"/>
                        <Array as="points"/>
                    </mxGeometry>
                </mxCell>
                <mxCell id="17" value="Click Profil&lt;span style=&quot;background-color: light-dark(#ffffff, var(--ge-dark-color, #121212));&quot;&gt;es Button&lt;/span&gt;" style="edgeLabel;html=1;align=center;verticalAlign=middle;resizable=0;points=[];" parent="16" vertex="1" connectable="0">
                    <mxGeometry x="0.1347" relative="1" as="geometry">
                        <mxPoint x="-9" y="-10" as="offset"/>
                    </mxGeometry>
                </mxCell>
                <mxCell id="20" value="" style="edgeStyle=none;html=1;exitX=0.5;exitY=1;exitDx=0;exitDy=0;endArrow=none;endFill=0;dashed=1;" parent="1" source="8" target="18" edge="1">
                    <mxGeometry relative="1" as="geometry">
                        <mxPoint x="440" y="440" as="targetPoint"/>
                        <mxPoint x="440" y="110" as="sourcePoint"/>
                    </mxGeometry>
                </mxCell>
                <mxCell id="18" value="" style="whiteSpace=wrap;html=1;" parent="1" vertex="1">
                    <mxGeometry x="430" y="160" width="20" height="70" as="geometry"/>
                </mxCell>
                <mxCell id="21" value="" style="edgeStyle=none;orthogonalLoop=1;jettySize=auto;html=1;entryX=0;entryY=0.25;entryDx=0;entryDy=0;" parent="1" edge="1">
                    <mxGeometry width="80" relative="1" as="geometry">
                        <mxPoint x="290" y="170" as="sourcePoint"/>
                        <mxPoint x="430" y="170" as="targetPoint"/>
                        <Array as="points"/>
                    </mxGeometry>
                </mxCell>
                <mxCell id="22" value="Switch to Profiles&lt;span style=&quot;background-color: light-dark(#ffffff, var(--ge-dark-color, #121212));&quot;&gt;&amp;nbsp;Page&lt;/span&gt;" style="edgeLabel;html=1;align=center;verticalAlign=middle;resizable=0;points=[];" parent="21" vertex="1" connectable="0">
                    <mxGeometry x="0.1347" relative="1" as="geometry">
                        <mxPoint x="-9" y="-10" as="offset"/>
                    </mxGeometry>
                </mxCell>
                <mxCell id="23" value="" style="edgeStyle=none;orthogonalLoop=1;jettySize=auto;html=1;entryX=0.5;entryY=0.25;entryDx=0;entryDy=0;entryPerimeter=0;" parent="1" edge="1">
                    <mxGeometry width="80" relative="1" as="geometry">
                        <mxPoint x="130" y="200" as="sourcePoint"/>
                        <mxPoint x="429.9999999999999" y="200" as="targetPoint"/>
                        <Array as="points"/>
                    </mxGeometry>
                </mxCell>
                <mxCell id="24" value="Click on Pet Type" style="edgeLabel;html=1;align=center;verticalAlign=middle;resizable=0;points=[];" parent="23" vertex="1" connectable="0">
                    <mxGeometry x="0.1347" relative="1" as="geometry">
                        <mxPoint x="-20" y="-10" as="offset"/>
                    </mxGeometry>
                </mxCell>
                <mxCell id="27" value="" style="edgeStyle=none;html=1;exitX=0.5;exitY=1;exitDx=0;exitDy=0;endArrow=none;endFill=0;dashed=1;" parent="1" source="10" target="25" edge="1">
                    <mxGeometry relative="1" as="geometry">
                        <mxPoint x="600" y="440" as="targetPoint"/>
                        <mxPoint x="600" y="110" as="sourcePoint"/>
                    </mxGeometry>
                </mxCell>
                <mxCell id="25" value="" style="whiteSpace=wrap;html=1;" parent="1" vertex="1">
                    <mxGeometry x="590" y="210" width="20" height="60" as="geometry"/>
                </mxCell>
                <mxCell id="29" value="" style="edgeStyle=none;html=1;exitX=0.5;exitY=1;exitDx=0;exitDy=0;endArrow=none;endFill=0;dashed=1;" parent="1" source="14" edge="1">
                    <mxGeometry relative="1" as="geometry">
                        <mxPoint x="280" y="440" as="targetPoint"/>
                        <mxPoint x="280" y="180" as="sourcePoint"/>
                    </mxGeometry>
                </mxCell>
                <mxCell id="30" value="" style="edgeStyle=none;orthogonalLoop=1;jettySize=auto;html=1;entryX=0;entryY=0.25;entryDx=0;entryDy=0;" parent="1" edge="1">
                    <mxGeometry width="80" relative="1" as="geometry">
                        <mxPoint x="450" y="220" as="sourcePoint"/>
                        <mxPoint x="590" y="220" as="targetPoint"/>
                        <Array as="points"/>
                    </mxGeometry>
                </mxCell>
                <mxCell id="31" value="Switch to Pet Type Page" style="edgeLabel;html=1;align=center;verticalAlign=middle;resizable=0;points=[];" parent="30" vertex="1" connectable="0">
                    <mxGeometry x="0.1347" relative="1" as="geometry">
                        <mxPoint x="-9" y="-10" as="offset"/>
                    </mxGeometry>
                </mxCell>
                <mxCell id="40" value="" style="edgeStyle=none;orthogonalLoop=1;jettySize=auto;html=1;dashed=1;" parent="1" edge="1">
                    <mxGeometry width="80" relative="1" as="geometry">
                        <mxPoint x="760" y="304.58000000000004" as="sourcePoint"/>
                        <mxPoint x="130" y="305" as="targetPoint"/>
                        <Array as="points"/>
                    </mxGeometry>
                </mxCell>
                <mxCell id="41" value="&lt;div&gt;Show Pet Information&lt;/div&gt;" style="edgeLabel;html=1;align=center;verticalAlign=middle;resizable=0;points=[];" parent="40" vertex="1" connectable="0">
                    <mxGeometry x="0.1347" relative="1" as="geometry">
                        <mxPoint x="-43" y="-15" as="offset"/>
                    </mxGeometry>
                </mxCell>
                <mxCell id="42" style="edgeStyle=none;html=1;exitX=0.5;exitY=1;exitDx=0;exitDy=0;endArrow=none;endFill=0;dashed=1;" edge="1" parent="1" source="45">
                    <mxGeometry relative="1" as="geometry">
                        <mxPoint x="761" y="440" as="targetPoint"/>
                    </mxGeometry>
                </mxCell>
                <mxCell id="43" value="Pet Pages" style="whiteSpace=wrap;html=1;" vertex="1" parent="1">
                    <mxGeometry x="711" y="60" width="100" height="50" as="geometry"/>
                </mxCell>
                <mxCell id="44" value="" style="edgeStyle=none;html=1;exitX=0.5;exitY=1;exitDx=0;exitDy=0;endArrow=none;endFill=0;dashed=1;" edge="1" parent="1" source="43" target="45">
                    <mxGeometry relative="1" as="geometry">
                        <mxPoint x="761" y="440" as="targetPoint"/>
                        <mxPoint x="761" y="110" as="sourcePoint"/>
                    </mxGeometry>
                </mxCell>
                <mxCell id="45" value="" style="whiteSpace=wrap;html=1;" vertex="1" parent="1">
                    <mxGeometry x="751" y="250" width="20" height="110" as="geometry"/>
                </mxCell>
                <mxCell id="48" value="" style="edgeStyle=none;orthogonalLoop=1;jettySize=auto;html=1;" edge="1" parent="1">
                    <mxGeometry width="80" relative="1" as="geometry">
                        <mxPoint x="130" y="240" as="sourcePoint"/>
                        <mxPoint x="590" y="240" as="targetPoint"/>
                        <Array as="points"/>
                    </mxGeometry>
                </mxCell>
                <mxCell id="49" value="Click on Pet" style="edgeLabel;html=1;align=center;verticalAlign=middle;resizable=0;points=[];" vertex="1" connectable="0" parent="48">
                    <mxGeometry x="0.1347" relative="1" as="geometry">
                        <mxPoint x="-111" y="-9" as="offset"/>
                    </mxGeometry>
                </mxCell>
                <mxCell id="50" value="" style="edgeStyle=none;orthogonalLoop=1;jettySize=auto;html=1;entryX=0;entryY=0.25;entryDx=0;entryDy=0;" edge="1" parent="1">
                    <mxGeometry width="80" relative="1" as="geometry">
                        <mxPoint x="610" y="260" as="sourcePoint"/>
                        <mxPoint x="750" y="260" as="targetPoint"/>
                        <Array as="points"/>
                    </mxGeometry>
                </mxCell>
                <mxCell id="51" value="Switch to Pet Type Page" style="edgeLabel;html=1;align=center;verticalAlign=middle;resizable=0;points=[];" vertex="1" connectable="0" parent="50">
                    <mxGeometry x="0.1347" relative="1" as="geometry">
                        <mxPoint x="-9" y="-10" as="offset"/>
                    </mxGeometry>
                </mxCell>
            </root>
        </mxGraphModel>
    </diagram>
</mxfile>